<mxfile host="app.diagrams.net" modified="2022-05-10T11:48:24.224Z" agent="5.0 (Windows NT 10.0; Win64; x64) AppleWebKit/537.36 (KHTML, like Gecko) Chrome/100.0.4896.60 Safari/537.36" etag="Coo-nDoMh3E0l1UUyKTJ" version="18.0.2" type="github">
  <diagram id="p-zMCUHrjdAfBnzh9_-T" name="Page-1">
    <mxGraphModel dx="460" dy="784" grid="1" gridSize="10" guides="1" tooltips="1" connect="1" arrows="1" fold="1" page="1" pageScale="1" pageWidth="827" pageHeight="1169" math="0" shadow="0">
      <root>
        <mxCell id="0" />
        <mxCell id="1" parent="0" />
        <mxCell id="yIdZw0cjp2BXO5e-bmSs-3" value="" style="edgeStyle=orthogonalEdgeStyle;rounded=0;orthogonalLoop=1;jettySize=auto;html=1;" edge="1" parent="1" source="yIdZw0cjp2BXO5e-bmSs-1" target="yIdZw0cjp2BXO5e-bmSs-2">
          <mxGeometry relative="1" as="geometry" />
        </mxCell>
        <mxCell id="yIdZw0cjp2BXO5e-bmSs-1" value="inicio" style="ellipse;whiteSpace=wrap;html=1;fillColor=#dae8fc;strokeColor=#6c8ebf;" vertex="1" parent="1">
          <mxGeometry x="10" y="10" width="120" height="80" as="geometry" />
        </mxCell>
        <mxCell id="yIdZw0cjp2BXO5e-bmSs-6" value="" style="edgeStyle=orthogonalEdgeStyle;rounded=0;orthogonalLoop=1;jettySize=auto;html=1;" edge="1" parent="1" source="yIdZw0cjp2BXO5e-bmSs-2" target="yIdZw0cjp2BXO5e-bmSs-5">
          <mxGeometry relative="1" as="geometry" />
        </mxCell>
        <mxCell id="yIdZw0cjp2BXO5e-bmSs-2" value="km,con,valgas" style="shape=parallelogram;perimeter=parallelogramPerimeter;whiteSpace=wrap;html=1;fixedSize=1;fillColor=#fff2cc;strokeColor=#d6b656;" vertex="1" parent="1">
          <mxGeometry x="10" y="180" width="120" height="60" as="geometry" />
        </mxCell>
        <mxCell id="yIdZw0cjp2BXO5e-bmSs-8" value="" style="edgeStyle=orthogonalEdgeStyle;rounded=0;orthogonalLoop=1;jettySize=auto;html=1;" edge="1" parent="1" source="yIdZw0cjp2BXO5e-bmSs-5" target="yIdZw0cjp2BXO5e-bmSs-7">
          <mxGeometry relative="1" as="geometry" />
        </mxCell>
        <mxCell id="yIdZw0cjp2BXO5e-bmSs-5" value="valida&amp;lt;-(km/con) *valgas&lt;br&gt;valvolta&amp;lt;-valida*2" style="whiteSpace=wrap;html=1;fillColor=#f8cecc;strokeColor=#b85450;" vertex="1" parent="1">
          <mxGeometry x="10" y="320" width="120" height="60" as="geometry" />
        </mxCell>
        <mxCell id="yIdZw0cjp2BXO5e-bmSs-10" value="" style="edgeStyle=orthogonalEdgeStyle;rounded=0;orthogonalLoop=1;jettySize=auto;html=1;" edge="1" parent="1" source="yIdZw0cjp2BXO5e-bmSs-7" target="yIdZw0cjp2BXO5e-bmSs-9">
          <mxGeometry relative="1" as="geometry" />
        </mxCell>
        <mxCell id="yIdZw0cjp2BXO5e-bmSs-7" value="valida,valvolta" style="shape=document;whiteSpace=wrap;html=1;boundedLbl=1;fillColor=#e1d5e7;strokeColor=#9673a6;" vertex="1" parent="1">
          <mxGeometry x="10" y="450" width="120" height="80" as="geometry" />
        </mxCell>
        <mxCell id="yIdZw0cjp2BXO5e-bmSs-9" value="fim" style="ellipse;whiteSpace=wrap;html=1;fillColor=#dae8fc;strokeColor=#6c8ebf;" vertex="1" parent="1">
          <mxGeometry x="10" y="620" width="120" height="60" as="geometry" />
        </mxCell>
      </root>
    </mxGraphModel>
  </diagram>
</mxfile>
